<svg xmlns="http://www.w3.org/2000/svg" viewBox="0 0 914.05 915"><defs><style>.cls-1{fill:#fff;}</style></defs><g id="Layer_2" data-name="Layer 2"><g id="Layer_1-2" data-name="Layer 1"><path class="cls-1" d="M685.46,489c-.21-4.31-.05-9.34-.89-14.19-.3-1.74-2.78-4-4.62-4.43-8.85-1.87-16.83,0-23.17,7-2.21,2.73-6.77,7.21-9.76,3.25a8.68,8.68,0,0,1-1.18-6.65c.62-2,2.79-3.79,4.69-5.05,11.12-7.35,23.71-8.3,36.41-7.15a91.24,91.24,0,0,1,21.43,4.6c7.58,2.63,11.62,8.75,11.8,17,.27,12.61.31,25.23.87,37.82a65.74,65.74,0,0,0,2.54,13.46c.75,2.88.25,4.51-2.83,4.57-10.49.22-21,.48-31.47.3-1.53,0-3-2.35-4.64-3.68-4.45,1.57-9.46,4-14.75,5.07-20.83,5-40.5-17.36-31.1-37.07,4.71-10.77,14.18-15.68,25.4-16.39C671,487.05,677.94,488.41,685.46,489Zm.15,23.39h-.16c0-3.49.11-7-.06-10.48-.06-1.06-.64-2.69-1.43-3a44.31,44.31,0,0,0-8.49-2.68c-2.34-.48-4,.87-3.94,3.33,0,9.36,0,18.72.34,28.06,0,1,1.88,2.68,3,2.73a10.52,10.52,0,0,0,10.79-10.45C685.62,517.4,685.61,514.91,685.61,512.41Z"/><path class="cls-1" d="M198.33,541.56c-6.12,0-12.24-.14-18.36.07-2.57.09-4.42-.34-5.17-3-2.16-7.71-6.92-9.57-15-8.67-9,1-18.22.23-27.33.57-7.67.74-6.86,16.26-14.24,13.09-3-1.37-2.42-4.22-1.25-6.48,16.11-30.59,32.8-60.88,49.28-91.28.65-1.17,2.11-2.88,2.94-2.75a5.69,5.69,0,0,1,3.34,2.84q24.16,44.63,48.17,89.34c2.66,4.94,1.87,6.25-3.66,6.27-6.25,0-12.49,0-18.74,0Zm-64.1-20H165.7c-5.22-10.14-10.07-19.53-15.39-29.85C144.65,502.19,139.55,511.67,134.23,521.53Z"/><path class="cls-1" d="M596.07,446.55c13.46,0,26.93,0,40.39,0,2.69,0,5.55.16,6,3.75s-1.8,3.73-5.05,3.72c-5.16,0-10.33,0-15.47-.3-3-.18-3.93.84-3.9,3.8.34,25.8.54,51.61.82,77.41.06,5.85-.14,6.17-6.1,6.26-10.45.17-20.9.2-31.34.44-3.11.06-4.67-.86-4.68-4.23-.1-26.43-.85-52.85-1-79.28,0-3.17-1.12-3.79-4-3.58-5.27.37-10.56.41-15.84.59-3,.1-5.45-.79-5.55-4.2s2.32-4.36,5.33-4.36q20.19,0,40.4,0Z"/><path class="cls-1" d="M784.42,499.53c6.2-13.31,11.9-24.76,17.43-37.25,1.33-2.81,3.49-4,6.41-2.63s3.25,3.87,1.88,6.61q-18.15,36.36-36.8,72.46c-.65,1.25-2,2.71-3.2,2.92-.88.15-2.39-1.42-3.1-2.55q-22.54-35.37-44.89-70.86a5.17,5.17,0,0,1-.6-4,4.91,4.91,0,0,1,3.37-2c11.11-.25,22.23-.32,33.34-.6,2.68-.07,4.28,1.42,5.67,3.86C770.81,477.11,776.9,488.11,784.42,499.53Z"/><path class="cls-1" d="M348.67,497.44c-1.64-12.64-8.47-35.39-36.36-35.79h-.75a31.78,31.78,0,0,0-6.48.7c-32.07,5.6-41.95,50-17.32,70.07,21.05,18.79,48.13,5.45,57.9-9.33a7.77,7.77,0,0,0,1.49-3.75c0-2.32-2.47-6.9-7.64-3.79-1.27.79-1.91,2.57-2.91,3.84-6.29,7.93-13.78,13.76-24.49,13.91-2.76,0-5.12-.87-5.19-4,0-2,0-4,0-6.06V509c-.11-2.36.7-3.21,2.54-3.37h32A7.29,7.29,0,0,0,348.67,497.44Zm-29.06-2.77a3.18,3.18,0,0,1-3.18,3.18h-6.61a3.19,3.19,0,0,1-3.18-3.18V472.72a3.19,3.19,0,0,1,3.18-3.18h6.61a3.18,3.18,0,0,1,3.18,3.18Z"/><path class="cls-1" d="M440.29,473.26c-9.61-17-31.23-16.85-45.9-6.29a.16.16,0,0,1-.25-.13h0a5.21,5.21,0,0,0-5.21-5.21H363.67a5.21,5.21,0,0,0-5.21,5.21v69.6a5.21,5.21,0,0,0,5.21,5.21h25.26a5.21,5.21,0,0,0,5.21-5.21V523.62a.16.16,0,0,1,.25-.13C428.93,547.88,459.76,504.29,440.29,473.26Zm-35.38,46.25c-5.17-1.66-9-4.71-10.75-8.57a.14.14,0,0,1,0-.07v-31.8a.24.24,0,0,1,0-.08c2.46-5.37,9.73-10.11,12.16-8.9,2,1,2.5,1.05,2.54,6.3s-.16,33.11,0,40.35C408.92,520,407.44,520.35,404.91,519.51Z"/><path class="cls-1" d="M544.57,536.39c-.35-9.86-.46-20.67-.71-30.53-.88-18.78,3.39-41.26-21.92-43.29-2.48-.17-5.15-.47-7.44.23-7.11,2.19-14.11,4.76-21.64,7.4V451.35a5,5,0,0,0-5-5h-27a5,5,0,0,0-5,5v85.3a5,5,0,0,0,5,5h27a5,5,0,0,0,5-5V483.59a4,4,0,0,1,1.78-3.36,52.56,52.56,0,0,1,8.47-4.77c2.67-1.1,4.78-.1,4.81,3.55.08,8.86.47,17.73.6,26.59.15,10.24.19,21.42.19,31.66,0,4,1.63,4.5,7.27,4.37,21-.47,9.42-.47,21-.47C543.14,541.16,544.72,540.62,544.57,536.39Z"/><rect class="cls-1" x="227.38" y="446.35" width="35.63" height="95.3" rx="5.64"/><path class="cls-1" d="M855.68,446.47c0,7.48.23,7.71,7.49,7.71,10.6,0,21.19.12,31.79,0,10.33-.14,16.94,5.92,17.49,16.86.77,15.08,1,30.19,1.31,45.29.15,7,.65,14-.18,20.88-.48,4-3.18,7.7-5.12,11.41-.39.73-1.86.88-2.84,1.3a8.13,8.13,0,0,1-.69-2.74c2.48-20.24.33-40.53.86-60.78.15-5.74-3.52-11.92-10.94-11.53-9.55.51-19.16.22-28.74.05-3-.05-4.66,1-5.43,3.81-1.17,4.23-2.47,8.43-3.6,12.66-2.38,8.93,1.5,16,6.81,22.67,4.61,5.77,8,11.91,7.38,19.71C870.52,543.1,865.4,548,856,548h-2c-7.43,0-7.46,0-8.55-7.36a29.8,29.8,0,0,1-.23-4.72c.1-6,1.22-7.17,7-7.72a21.57,21.57,0,0,0,2.28-.49c-.92-2.2-1.91-4.17-2.58-6.24-4.72-14.67-3-28.92,3.06-42.81,1.05-2.39,1.38-3.62-1.73-4.6-4.36-1.37-6.39-5.17-7.44-9.36-1.93-7.69,1.13-15.18,7-17.56A20.24,20.24,0,0,1,855.68,446.47Z"/><path class="cls-1" d="M43.88,496.94c2.95-8.47,5.8-16.49,8.46-24.57.21-.63-.68-2.14-1.42-2.49-8.73-4.21-11.68-13.76-6.65-22.21a2.85,2.85,0,0,1,2.24-1.31,3.09,3.09,0,0,1,2.11,1.83c1,4,3.74,5.8,7.42,6.72,1.65.41,3.31.84,4.93,1.39,6.15,2.07,9,7.63,6.61,13.64-.47,1.18-3.13,2.16-4.71,2.07-3-.18-4.35,1.05-5.42,3.63-3.58,8.61-7.05,17.28-6,26.83a22.19,22.19,0,0,0,3.16,8.75c3.42,5.61,7.8,10.66,10.95,16.4,4,7.23,2.69,14.66-1.32,21.62A3.71,3.71,0,0,1,61.51,551c-.74-.06-1.54-1.48-2-2.44-2.39-5-4-10.58-7.12-15C43.63,521,34.2,509,25.13,496.79c-1.58-2.13-2.83-2.05-4.75-.55-5.84,4.57-7.78,11.17-4.88,18.72,2.13,5.57,5.32,10.79,7,16.48,1.35,4.67,1.34,9.79,1.41,14.71,0,1.06-2.09,2.92-3.37,3.07a82.47,82.47,0,0,1-11.34.1,7.88,7.88,0,0,1-2.51-1c.51-.84,1.06-1.66,1.51-2.53.9-1.72,2.63-3.58,2.42-5.18A90.8,90.8,0,0,0,7.5,527.45c-2.29-8-4.56-16.07,0-23.79a60.72,60.72,0,0,1,9.8-12c2-2,2.12-2.92.49-4.95-3.13-3.89-6.2-7.86-9-12-5.89-8.8-4.73-17.82-.16-26.71.45-.88,2.06-1.4,3.2-1.54.42-.06,1.15,1.44,1.53,2.32,2.22,5.21,3.64,10.93,6.7,15.57C26.86,474.59,43.2,496.11,43.88,496.94Z"/><path class="cls-1" d="M25.92,497.85c8.83,11.87,18,23.53,26.48,35.62,3.14,4.47,4.73,10,7.12,15,.45,1,1.25,2.38,2,2.44a3.71,3.71,0,0,0,2.77-1.72c4-7,5.29-14.39,1.32-21.62-3.15-5.74-7.53-10.79-10.95-16.4a22.19,22.19,0,0,1-3.16-8.75,31.26,31.26,0,0,1-.18-4.62Z"/><path class="cls-1" d="M10.58,540.57c.21,1.6-1.52,3.46-2.42,5.18-.45.87-1,1.69-1.51,2.53a7.88,7.88,0,0,0,2.51,1,82.47,82.47,0,0,0,11.34-.1c1.28-.15,3.39-2,3.37-3.07-.07-4.92-.06-10-1.41-14.71-1.64-5.69-4.83-10.91-7-16.48-2.58-6.71-1.32-12.67,3.08-17.11h-7a47.27,47.27,0,0,0-4.1,5.81c-4.56,7.72-2.29,15.82,0,23.79A90.8,90.8,0,0,1,10.58,540.57Z"/><path class="cls-1" d="M912.45,471c-.55-10.94-7.16-17-17.49-16.86-10.6.15-21.19,0-31.79,0-7.26,0-7.5-.23-7.49-7.71a20.24,20.24,0,0,0-2.8.71c-5.9,2.38-9,9.87-7,17.56,1,4.19,3.08,8,7.44,9.36,3.11,1,2.78,2.21,1.73,4.6a67.72,67.72,0,0,0-5.36,19.15h6.75a20.28,20.28,0,0,1,.67-6.49c1.13-4.23,2.43-8.43,3.6-12.66.77-2.8,2.45-3.86,5.43-3.81,9.58.17,19.19.46,28.74-.05,7.42-.39,11.09,5.79,10.94,11.53-.1,3.82-.11,7.65-.06,11.48h7.63C913.16,488.9,912.91,480,912.45,471Z"/><path class="cls-1" d="M456.94,38C680.7,38,864.1,214.1,875.84,435a4.1,4.1,0,0,0,4.09,3.91h29.84a4.12,4.12,0,0,0,4.11-4.3A457.36,457.36,0,0,0,133.44,134,456,456,0,0,0,0,434.6a4.12,4.12,0,0,0,4.12,4.3H34a4.12,4.12,0,0,0,4.1-3.91C49.78,214.1,233.18,38,456.94,38Z"/><path class="cls-1" d="M456.94,877C260.61,877,95.36,741.43,49.86,559A4,4,0,0,0,46,556H15a4,4,0,0,0-3.87,4.83A457.22,457.22,0,0,0,456.94,915a457.49,457.49,0,0,0,445.8-354.18,4,4,0,0,0-3.87-4.83h-31a4,4,0,0,0-3.84,3C818.52,741.43,653.27,877,456.94,877Z"/><path class="cls-1" d="M456.94,71.5C662.23,71.5,830.6,232.6,842.29,435a4.1,4.1,0,0,0,4.09,3.89H859.2a4.1,4.1,0,0,0,4.1-4.32A406.86,406.86,0,0,0,169.15,169.71,405.56,405.56,0,0,0,50.58,434.58a4.1,4.1,0,0,0,4.1,4.32H67.5A4.1,4.1,0,0,0,71.59,435C83.28,232.6,251.65,71.5,456.94,71.5Z"/><path class="cls-1" d="M456.94,843.5c-177.76,0-327.83-120.78-372.48-284.59A4,4,0,0,0,80.65,556H67a4,4,0,0,0-3.83,4.94A406.9,406.9,0,0,0,744.73,745.29a406.44,406.44,0,0,0,106-184.36,4,4,0,0,0-3.84-4.94H833.23a4,4,0,0,0-3.81,2.92C784.77,722.72,634.7,843.5,456.94,843.5Z"/></g></g></svg>